<svg xmlns="http://www.w3.org/2000/svg" viewBox="0 0 40 40" fill="none">
  <!-- V4: Minimal board with scan corners (OCR theme) -->
  <rect x="6" y="5" width="28" height="30" rx="5" stroke="#555" stroke-width="2.5" fill="none"/>
  <line x1="6" y1="20" x2="34" y2="20" stroke="#555" stroke-width="1.2"/>
  <!-- Top stones (staggered) -->
  <circle cx="13" cy="10" r="2.3" fill="#555"/>
  <circle cx="20" cy="10" r="2.3" fill="#555"/>
  <circle cx="27" cy="10" r="2.3" fill="#555"/>
  <circle cx="16.5" cy="15.5" r="2.3" fill="#555"/>
  <circle cx="23.5" cy="15.5" r="2.3" fill="#555"/>
  <!-- Bottom stones -->
  <circle cx="13" cy="25" r="2.3" fill="#555"/>
  <circle cx="20" cy="25" r="2.3" fill="#555"/>
  <circle cx="27" cy="25" r="2.3" fill="#555"/>
  <circle cx="16.5" cy="30.5" r="2.3" fill="#555"/>
  <circle cx="23.5" cy="30.5" r="2.3" fill="#555"/>
  <!-- OCR scan corners -->
  <path d="M2 10 L2 3 L9 3" stroke="#42b8b8" stroke-width="2" stroke-linecap="round"/>
  <path d="M38 10 L38 3 L31 3" stroke="#42b8b8" stroke-width="2" stroke-linecap="round"/>
  <path d="M2 30 L2 37 L9 37" stroke="#42b8b8" stroke-width="2" stroke-linecap="round"/>
  <path d="M38 30 L38 37 L31 37" stroke="#42b8b8" stroke-width="2" stroke-linecap="round"/>
</svg>
